<svg viewBox="0 0 193 92" fill="none" xmlns="http://www.w3.org/2000/svg">
    <path d="M26.97 91.28C21.5087 91.28 16.7727 89.872 12.762 87.056C8.83667 84.1547 5.85 80.2293 3.802 75.28C1.754 70.3307 0.73 64.6987 0.73 58.384C0.73 51.3867 1.882 45.456 4.186 40.592C6.57533 35.728 9.77533 32.016 13.786 29.456C17.7967 26.896 22.1913 25.616 26.97 25.616C30.2127 25.616 33.242 26.2987 36.058 27.664C38.9593 28.944 41.434 31.0347 43.482 33.936C45.6153 36.752 47.0233 40.5067 47.706 45.2L44.378 43.408V0.783997H61.914V90H44.378V73.744L48.218 70.928C47.194 76.3893 45.53 80.6133 43.226 83.6C40.922 86.5013 38.362 88.5067 35.546 89.616C32.73 90.7253 29.8713 91.28 26.97 91.28ZM32.218 75.152C35.034 75.152 37.466 74.4693 39.514 73.104C41.562 71.7387 43.1407 69.8187 44.25 67.344C45.3593 64.784 45.914 61.7973 45.914 58.384C45.914 54.9707 45.3593 52.0267 44.25 49.552C43.1407 47.0773 41.562 45.1573 39.514 43.792C37.466 42.3413 35.034 41.616 32.218 41.616C29.402 41.616 26.9273 42.2987 24.794 43.664C22.746 45.0293 21.1247 46.9493 19.93 49.424C18.8207 51.8987 18.266 54.8853 18.266 58.384C18.266 61.8827 18.8207 64.912 19.93 67.472C21.1247 69.9467 22.746 71.8667 24.794 73.232C26.9273 74.512 29.402 75.152 32.218 75.152ZM104.962 91.28C99.6713 91.28 95.0633 90.384 91.138 88.592C87.298 86.7147 84.0553 84.24 81.41 81.168C78.85 78.0107 76.93 74.4693 75.65 70.544C74.37 66.6187 73.73 62.5653 73.73 58.384C73.73 54.2027 74.37 50.1493 75.65 46.224C76.93 42.2987 78.85 38.8 81.41 35.728C84.0553 32.656 87.298 30.224 91.138 28.432C95.0633 26.5547 99.6713 25.616 104.962 25.616C111.447 25.616 117.079 27.152 121.858 30.224C126.637 33.296 130.221 38.032 132.61 44.432L117.25 50.576C116.311 47.6747 114.861 45.328 112.898 43.536C111.021 41.744 108.375 40.848 104.962 40.848C101.719 40.848 99.074 41.7013 97.026 43.408C95.0633 45.1147 93.6127 47.3333 92.674 50.064C91.7353 52.7093 91.266 55.4827 91.266 58.384C91.266 61.2853 91.7353 64.1013 92.674 66.832C93.6127 69.5627 95.0633 71.7813 97.026 73.488C99.074 75.1947 101.719 76.048 104.962 76.048C108.375 76.048 111.021 75.152 112.898 73.36C114.861 71.568 116.311 69.2213 117.25 66.32L132.61 72.464C130.221 78.7787 126.637 83.5147 121.858 86.672C117.079 89.744 111.447 91.28 104.962 91.28Z"
          fill="#5865F2"/>
    <path d="M165.943 91.28C161.164 91.28 156.983 90.5973 153.399 89.232C149.815 87.8667 146.828 86.2027 144.439 84.24C142.05 82.192 140.087 80.3147 138.551 78.608L150.583 68.112C152.034 70.2453 153.996 72.2933 156.471 74.256C159.031 76.2187 162.231 77.2 166.071 77.2C168.887 77.2 171.063 76.6453 172.599 75.536C174.22 74.4267 175.031 73.1467 175.031 71.696C175.031 70.3307 174.519 69.264 173.495 68.496C172.471 67.6427 171.106 66.9173 169.399 66.32C167.692 65.7227 165.772 65.1253 163.639 64.528C161.25 63.9307 158.775 63.2053 156.215 62.352C153.655 61.4133 151.266 60.2187 149.047 58.768C146.828 57.3173 145.036 55.4827 143.671 53.264C142.306 50.96 141.623 48.1013 141.623 44.688C141.623 38.9707 143.842 34.3627 148.279 30.864C152.802 27.3653 158.69 25.616 165.943 25.616C171.063 25.616 175.714 26.5973 179.895 28.56C184.076 30.5227 187.404 33.3813 189.879 37.136L178.999 45.712C177.463 43.4933 175.5 41.7867 173.111 40.592C170.722 39.312 168.204 38.672 165.559 38.672C163.34 38.672 161.506 39.0987 160.055 39.952C158.69 40.72 158.007 41.744 158.007 43.024C158.007 43.9627 158.348 44.7733 159.031 45.456C159.714 46.0533 160.823 46.608 162.359 47.12C163.895 47.632 165.986 48.2293 168.631 48.912C171.106 49.5093 173.708 50.2347 176.439 51.088C179.17 51.9413 181.73 53.136 184.119 54.672C186.594 56.1227 188.556 58.0853 190.007 60.56C191.543 62.9493 192.311 65.9787 192.311 69.648C192.311 73.9147 191.202 77.712 188.983 81.04C186.85 84.2827 183.778 86.8 179.767 88.592C175.842 90.384 171.234 91.28 165.943 91.28Z"
          fill="url(#paint0_linear_2_6)"/>
    <defs>
        <linearGradient id="paint0_linear_2_6" x1="169.169" y1="26" x2="170.785" y2="89.9631"
                        gradientUnits="userSpaceOnUse">
            <stop stop-color="#ED4245"/>
            <stop offset="0.2" stop-color="#EB459E"/>
            <stop offset="0.4" stop-color="#FEE75C"/>
            <stop offset="0.6" stop-color="#57F287"/>
            <stop offset="0.8" stop-color="#5865F2"/>
            <stop offset="1" stop-color="#B65CFE"/>
        </linearGradient>
    </defs>
</svg>
