<svg viewBox="0 0 642 92" width="642" height="92" fill="none" xmlns="http://www.w3.org/2000/svg">
    <path d="M26.97 91.28C21.5087 91.28 16.7727 89.872 12.762 87.056C8.83667 84.1547 5.85 80.2293 3.802 75.28C1.754 70.3307 0.73 64.6987 0.73 58.384C0.73 51.3867 1.882 45.456 4.186 40.592C6.57533 35.728 9.77533 32.016 13.786 29.456C17.7967 26.896 22.1913 25.616 26.97 25.616C30.2127 25.616 33.242 26.2987 36.058 27.664C38.9593 28.944 41.434 31.0347 43.482 33.936C45.6153 36.752 47.0233 40.5067 47.706 45.2L44.378 43.408V0.783997H61.914V90H44.378V73.744L48.218 70.928C47.194 76.3893 45.53 80.6133 43.226 83.6C40.922 86.5013 38.362 88.5067 35.546 89.616C32.73 90.7253 29.8713 91.28 26.97 91.28ZM32.218 75.152C35.034 75.152 37.466 74.4693 39.514 73.104C41.562 71.7387 43.1407 69.8187 44.25 67.344C45.3593 64.784 45.914 61.7973 45.914 58.384C45.914 54.9707 45.3593 52.0267 44.25 49.552C43.1407 47.0773 41.562 45.1573 39.514 43.792C37.466 42.3413 35.034 41.616 32.218 41.616C29.402 41.616 26.9273 42.2987 24.794 43.664C22.746 45.0293 21.1247 46.9493 19.93 49.424C18.8207 51.8987 18.266 54.8853 18.266 58.384C18.266 61.8827 18.8207 64.912 19.93 67.472C21.1247 69.9467 22.746 71.8667 24.794 73.232C26.9273 74.512 29.402 75.152 32.218 75.152ZM76.546 90V26.896H94.082V90H76.546ZM76.29 17.68V0.783997H94.594V17.68H76.29ZM131.068 91.28C126.289 91.28 122.108 90.5973 118.524 89.232C114.94 87.8667 111.953 86.2027 109.564 84.24C107.175 82.192 105.212 80.3147 103.676 78.608L115.708 68.112C117.159 70.2453 119.121 72.2933 121.596 74.256C124.156 76.2187 127.356 77.2 131.196 77.2C134.012 77.2 136.188 76.6453 137.724 75.536C139.345 74.4267 140.156 73.1467 140.156 71.696C140.156 70.3307 139.644 69.264 138.62 68.496C137.596 67.6427 136.231 66.9173 134.524 66.32C132.817 65.7227 130.897 65.1253 128.764 64.528C126.375 63.9307 123.9 63.2053 121.34 62.352C118.78 61.4133 116.391 60.2187 114.172 58.768C111.953 57.3173 110.161 55.4827 108.796 53.264C107.431 50.96 106.748 48.1013 106.748 44.688C106.748 38.9707 108.967 34.3627 113.404 30.864C117.927 27.3653 123.815 25.616 131.068 25.616C136.188 25.616 140.839 26.5973 145.02 28.56C149.201 30.5227 152.529 33.3813 155.004 37.136L144.124 45.712C142.588 43.4933 140.625 41.7867 138.236 40.592C135.847 39.312 133.329 38.672 130.684 38.672C128.465 38.672 126.631 39.0987 125.18 39.952C123.815 40.72 123.132 41.744 123.132 43.024C123.132 43.9627 123.473 44.7733 124.156 45.456C124.839 46.0533 125.948 46.608 127.484 47.12C129.02 47.632 131.111 48.2293 133.756 48.912C136.231 49.5093 138.833 50.2347 141.564 51.088C144.295 51.9413 146.855 53.136 149.244 54.672C151.719 56.1227 153.681 58.0853 155.132 60.56C156.668 62.9493 157.436 65.9787 157.436 69.648C157.436 73.9147 156.327 77.712 154.108 81.04C151.975 84.2827 148.903 86.8 144.892 88.592C140.967 90.384 136.359 91.28 131.068 91.28ZM197.587 91.28C192.296 91.28 187.688 90.384 183.763 88.592C179.923 86.7147 176.68 84.24 174.035 81.168C171.475 78.0107 169.555 74.4693 168.275 70.544C166.995 66.6187 166.355 62.5653 166.355 58.384C166.355 54.2027 166.995 50.1493 168.275 46.224C169.555 42.2987 171.475 38.8 174.035 35.728C176.68 32.656 179.923 30.224 183.763 28.432C187.688 26.5547 192.296 25.616 197.587 25.616C204.072 25.616 209.704 27.152 214.483 30.224C219.262 33.296 222.846 38.032 225.235 44.432L209.875 50.576C208.936 47.6747 207.486 45.328 205.523 43.536C203.646 41.744 201 40.848 197.587 40.848C194.344 40.848 191.699 41.7013 189.651 43.408C187.688 45.1147 186.238 47.3333 185.299 50.064C184.36 52.7093 183.891 55.4827 183.891 58.384C183.891 61.2853 184.36 64.1013 185.299 66.832C186.238 69.5627 187.688 71.7813 189.651 73.488C191.699 75.1947 194.344 76.048 197.587 76.048C201 76.048 203.646 75.152 205.523 73.36C207.486 71.568 208.936 69.2213 209.875 66.32L225.235 72.464C222.846 78.7787 219.262 83.5147 214.483 86.672C209.704 89.744 204.072 91.28 197.587 91.28ZM265.608 91.28C259.464 91.28 253.96 89.872 249.096 87.056C244.232 84.24 240.392 80.3573 237.576 75.408C234.845 70.3733 233.48 64.6987 233.48 58.384C233.48 51.984 234.845 46.3093 237.576 41.36C240.392 36.4107 244.189 32.5707 248.968 29.84C253.832 27.024 259.379 25.616 265.608 25.616C271.752 25.616 277.213 27.024 281.992 29.84C286.856 32.5707 290.653 36.4107 293.384 41.36C296.2 46.3093 297.608 51.984 297.608 58.384C297.608 64.6987 296.2 70.3733 293.384 75.408C290.653 80.3573 286.856 84.24 281.992 87.056C277.213 89.872 271.752 91.28 265.608 91.28ZM265.608 75.92C268.68 75.92 271.283 75.2373 273.416 73.872C275.549 72.5067 277.171 70.5013 278.28 67.856C279.389 65.2107 279.944 62.0533 279.944 58.384C279.944 54.6293 279.389 51.472 278.28 48.912C277.171 46.352 275.549 44.3893 273.416 43.024C271.283 41.6587 268.68 40.976 265.608 40.976C262.536 40.976 259.891 41.6587 257.672 43.024C255.539 44.3893 253.875 46.352 252.68 48.912C251.571 51.472 251.016 54.6293 251.016 58.384C251.016 62.0533 251.571 65.2107 252.68 67.856C253.875 70.5013 255.539 72.5067 257.672 73.872C259.891 75.2373 262.536 75.92 265.608 75.92ZM309.549 90V26.896H327.213V44.048L324.781 44.176C325.037 40.592 326.061 37.392 327.853 34.576C329.73 31.76 332.077 29.584 334.893 28.048C337.709 26.4267 340.61 25.616 343.597 25.616C345.73 25.616 347.778 25.9147 349.741 26.512C351.704 27.1093 353.794 28.0907 356.013 29.456L347.565 45.328C346.626 44.7307 345.389 44.2187 343.853 43.792C342.402 43.28 340.909 43.024 339.373 43.024C337.837 43.024 336.344 43.3227 334.893 43.92C333.442 44.5173 332.162 45.4133 331.053 46.608C329.944 47.7173 329.048 49.2107 328.365 51.088C327.938 52.2827 327.597 53.8187 327.341 55.696C327.17 57.488 327.085 60.176 327.085 63.76V90H309.549ZM384.845 91.28C379.384 91.28 374.648 89.872 370.637 87.056C366.712 84.1547 363.725 80.2293 361.677 75.28C359.629 70.3307 358.605 64.6987 358.605 58.384C358.605 51.3867 359.757 45.456 362.061 40.592C364.45 35.728 367.65 32.016 371.661 29.456C375.672 26.896 380.066 25.616 384.845 25.616C388.088 25.616 391.117 26.2987 393.933 27.664C396.834 28.944 399.309 31.0347 401.357 33.936C403.49 36.752 404.898 40.5067 405.581 45.2L402.253 43.408V0.783997H419.789V90H402.253V73.744L406.093 70.928C405.069 76.3893 403.405 80.6133 401.101 83.6C398.797 86.5013 396.237 88.5067 393.421 89.616C390.605 90.7253 387.746 91.28 384.845 91.28ZM390.093 75.152C392.909 75.152 395.341 74.4693 397.389 73.104C399.437 71.7387 401.016 69.8187 402.125 67.344C403.234 64.784 403.789 61.7973 403.789 58.384C403.789 54.9707 403.234 52.0267 402.125 49.552C401.016 47.0773 399.437 45.1573 397.389 43.792C395.341 42.3413 392.909 41.616 390.093 41.616C387.277 41.616 384.802 42.2987 382.669 43.664C380.621 45.0293 379 46.9493 377.805 49.424C376.696 51.8987 376.141 54.8853 376.141 58.384C376.141 61.8827 376.696 64.912 377.805 67.472C379 69.9467 380.621 71.8667 382.669 73.232C384.802 74.512 387.277 75.152 390.093 75.152ZM433.269 90V72.464H451.701V90H433.269Z"
          fill="#5865F2"/>
    <path d="M493.587 91.28C488.296 91.28 483.688 90.384 479.763 88.592C475.923 86.7147 472.68 84.24 470.035 81.168C467.475 78.0107 465.555 74.4693 464.275 70.544C462.995 66.6187 462.355 62.5653 462.355 58.384C462.355 54.2027 462.995 50.1493 464.275 46.224C465.555 42.2987 467.475 38.8 470.035 35.728C472.68 32.656 475.923 30.224 479.763 28.432C483.688 26.5547 488.296 25.616 493.587 25.616C500.072 25.616 505.704 27.152 510.483 30.224C515.262 33.296 518.846 38.032 521.235 44.432L505.875 50.576C504.936 47.6747 503.486 45.328 501.523 43.536C499.646 41.744 497 40.848 493.587 40.848C490.344 40.848 487.699 41.7013 485.651 43.408C483.688 45.1147 482.238 47.3333 481.299 50.064C480.36 52.7093 479.891 55.4827 479.891 58.384C479.891 61.2853 480.36 64.1013 481.299 66.832C482.238 69.5627 483.688 71.7813 485.651 73.488C487.699 75.1947 490.344 76.048 493.587 76.048C497 76.048 499.646 75.152 501.523 73.36C503.486 71.568 504.936 69.2213 505.875 66.32L521.235 72.464C518.846 78.7787 515.262 83.5147 510.483 86.672C505.704 89.744 500.072 91.28 493.587 91.28ZM554.568 91.28C549.789 91.28 545.608 90.5973 542.024 89.232C538.44 87.8667 535.453 86.2027 533.064 84.24C530.675 82.192 528.712 80.3147 527.176 78.608L539.208 68.112C540.659 70.2453 542.621 72.2933 545.096 74.256C547.656 76.2187 550.856 77.2 554.696 77.2C557.512 77.2 559.688 76.6453 561.224 75.536C562.845 74.4267 563.656 73.1467 563.656 71.696C563.656 70.3307 563.144 69.264 562.12 68.496C561.096 67.6427 559.731 66.9173 558.024 66.32C556.317 65.7227 554.397 65.1253 552.264 64.528C549.875 63.9307 547.4 63.2053 544.84 62.352C542.28 61.4133 539.891 60.2187 537.672 58.768C535.453 57.3173 533.661 55.4827 532.296 53.264C530.931 50.96 530.248 48.1013 530.248 44.688C530.248 38.9707 532.467 34.3627 536.904 30.864C541.427 27.3653 547.315 25.616 554.568 25.616C559.688 25.616 564.339 26.5973 568.52 28.56C572.701 30.5227 576.029 33.3813 578.504 37.136L567.624 45.712C566.088 43.4933 564.125 41.7867 561.736 40.592C559.347 39.312 556.829 38.672 554.184 38.672C551.965 38.672 550.131 39.0987 548.68 39.952C547.315 40.72 546.632 41.744 546.632 43.024C546.632 43.9627 546.973 44.7733 547.656 45.456C548.339 46.0533 549.448 46.608 550.984 47.12C552.52 47.632 554.611 48.2293 557.256 48.912C559.731 49.5093 562.333 50.2347 565.064 51.088C567.795 51.9413 570.355 53.136 572.744 54.672C575.219 56.1227 577.181 58.0853 578.632 60.56C580.168 62.9493 580.936 65.9787 580.936 69.648C580.936 73.9147 579.827 77.712 577.608 81.04C575.475 84.2827 572.403 86.8 568.392 88.592C564.467 90.384 559.859 91.28 554.568 91.28ZM614.943 91.28C610.164 91.28 605.983 90.5973 602.399 89.232C598.815 87.8667 595.828 86.2027 593.439 84.24C591.05 82.192 589.087 80.3147 587.551 78.608L599.583 68.112C601.034 70.2453 602.996 72.2933 605.471 74.256C608.031 76.2187 611.231 77.2 615.071 77.2C617.887 77.2 620.063 76.6453 621.599 75.536C623.22 74.4267 624.031 73.1467 624.031 71.696C624.031 70.3307 623.519 69.264 622.495 68.496C621.471 67.6427 620.106 66.9173 618.399 66.32C616.692 65.7227 614.772 65.1253 612.639 64.528C610.25 63.9307 607.775 63.2053 605.215 62.352C602.655 61.4133 600.266 60.2187 598.047 58.768C595.828 57.3173 594.036 55.4827 592.671 53.264C591.306 50.96 590.623 48.1013 590.623 44.688C590.623 38.9707 592.842 34.3627 597.279 30.864C601.802 27.3653 607.69 25.616 614.943 25.616C620.063 25.616 624.714 26.5973 628.895 28.56C633.076 30.5227 636.404 33.3813 638.879 37.136L627.999 45.712C626.463 43.4933 624.5 41.7867 622.111 40.592C619.722 39.312 617.204 38.672 614.559 38.672C612.34 38.672 610.506 39.0987 609.055 39.952C607.69 40.72 607.007 41.744 607.007 43.024C607.007 43.9627 607.348 44.7733 608.031 45.456C608.714 46.0533 609.823 46.608 611.359 47.12C612.895 47.632 614.986 48.2293 617.631 48.912C620.106 49.5093 622.708 50.2347 625.439 51.088C628.17 51.9413 630.73 53.136 633.119 54.672C635.594 56.1227 637.556 58.0853 639.007 60.56C640.543 62.9493 641.311 65.9787 641.311 69.648C641.311 73.9147 640.202 77.712 637.983 81.04C635.85 84.2827 632.778 86.8 628.767 88.592C624.842 90.384 620.234 91.28 614.943 91.28Z"
          fill="url(#paint0_linear_2_3)"/>
    <defs>
        <linearGradient id="paint0_linear_2_3" x1="556" y1="26" x2="556.5" y2="90" gradientUnits="userSpaceOnUse">
            <stop stop-color="#ED4245"/>
            <stop offset="0.2" stop-color="#EB459E"/>
            <stop offset="0.4" stop-color="#FEE75C"/>
            <stop offset="0.6" stop-color="#57F287"/>
            <stop offset="0.8" stop-color="#5865F2"/>
            <stop offset="1" stop-color="#B65CFE"/>
        </linearGradient>
    </defs>
</svg>
